<svg height="2270" width="720" xmlns="http://www.w3.org/2000/svg">
<rect height="2270" fill="#555" width="720"></rect>
<text fill="#7f7" font-family="Courier New" font-size="12" xml:space="preserve">
<tspan x="10" y="26">74 megabytes installed</tspan>
<tspan x="10" y="42"></tspan>
<tspan x="10" y="58">node_modules</tspan>
<tspan x="10" y="74">└─┬ svg2png@4.1.1 </tspan>
<tspan x="10" y="90">  ├── file-url@2.0.2 </tspan>
<tspan x="10" y="106">  ├─┬ phantomjs-prebuilt@2.1.14 </tspan>
<tspan x="10" y="122">  │ ├── es6-promise@4.0.5 </tspan>
<tspan x="10" y="138">  │ ├─┬ extract-zip@1.5.0 </tspan>
<tspan x="10" y="154">  │ │ ├─┬ concat-stream@1.5.0 </tspan>
<tspan x="10" y="170">  │ │ │ ├── inherits@2.0.3 </tspan>
<tspan x="10" y="186">  │ │ │ ├─┬ readable-stream@2.0.6 </tspan>
<tspan x="10" y="202">  │ │ │ │ ├── core-util-is@1.0.2 </tspan>
<tspan x="10" y="218">  │ │ │ │ ├── isarray@1.0.0 </tspan>
<tspan x="10" y="234">  │ │ │ │ ├── process-nextick-args@1.0.7 </tspan>
<tspan x="10" y="250">  │ │ │ │ ├── string_decoder@0.10.31 </tspan>
<tspan x="10" y="266">  │ │ │ │ └── util-deprecate@1.0.2 </tspan>
<tspan x="10" y="282">  │ │ │ └── typedarray@0.0.6 </tspan>
<tspan x="10" y="298">  │ │ ├── debug@0.7.4 </tspan>
<tspan x="10" y="314">  │ │ ├─┬ mkdirp@0.5.0 </tspan>
<tspan x="10" y="330">  │ │ │ └── minimist@0.0.8 </tspan>
<tspan x="10" y="346">  │ │ └─┬ yauzl@2.4.1 </tspan>
<tspan x="10" y="362">  │ │   └─┬ fd-slicer@1.0.1 </tspan>
<tspan x="10" y="378">  │ │     └── pend@1.2.0 </tspan>
<tspan x="10" y="394">  │ ├─┬ fs-extra@1.0.0 </tspan>
<tspan x="10" y="410">  │ │ ├── graceful-fs@4.1.11 </tspan>
<tspan x="10" y="426">  │ │ ├── jsonfile@2.4.0 </tspan>
<tspan x="10" y="442">  │ │ └── klaw@1.3.1 </tspan>
<tspan x="10" y="458">  │ ├─┬ hasha@2.2.0 </tspan>
<tspan x="10" y="474">  │ │ ├── is-stream@1.1.0 </tspan>
<tspan x="10" y="490">  │ │ └─┬ pinkie-promise@2.0.1 </tspan>
<tspan x="10" y="506">  │ │   └── pinkie@2.0.4 </tspan>
<tspan x="10" y="522">  │ ├── kew@0.7.0 </tspan>
<tspan x="10" y="538">  │ ├── progress@1.1.8 </tspan>
<tspan x="10" y="554">  │ ├─┬ request@2.79.0 </tspan>
<tspan x="10" y="570">  │ │ ├── aws-sign2@0.6.0 </tspan>
<tspan x="10" y="586">  │ │ ├── aws4@1.6.0 </tspan>
<tspan x="10" y="602">  │ │ ├── caseless@0.11.0 </tspan>
<tspan x="10" y="618">  │ │ ├─┬ combined-stream@1.0.5 </tspan>
<tspan x="10" y="634">  │ │ │ └── delayed-stream@1.0.0 </tspan>
<tspan x="10" y="650">  │ │ ├── extend@3.0.0 </tspan>
<tspan x="10" y="666">  │ │ ├── forever-agent@0.6.1 </tspan>
<tspan x="10" y="682">  │ │ ├─┬ form-data@2.1.4 </tspan>
<tspan x="10" y="698">  │ │ │ └── asynckit@0.4.0 </tspan>
<tspan x="10" y="714">  │ │ ├─┬ har-validator@2.0.6 </tspan>
<tspan x="10" y="730">  │ │ │ ├─┬ chalk@1.1.3 </tspan>
<tspan x="10" y="746">  │ │ │ │ ├── ansi-styles@2.2.1 </tspan>
<tspan x="10" y="762">  │ │ │ │ ├── escape-string-regexp@1.0.5 </tspan>
<tspan x="10" y="778">  │ │ │ │ ├── has-ansi@2.0.0 </tspan>
<tspan x="10" y="794">  │ │ │ │ └── supports-color@2.0.0 </tspan>
<tspan x="10" y="810">  │ │ │ ├─┬ commander@2.9.0 </tspan>
<tspan x="10" y="826">  │ │ │ │ └── graceful-readlink@1.0.1 </tspan>
<tspan x="10" y="842">  │ │ │ └─┬ is-my-json-valid@2.16.0 </tspan>
<tspan x="10" y="858">  │ │ │   ├── generate-function@2.0.0 </tspan>
<tspan x="10" y="874">  │ │ │   ├─┬ generate-object-property@1.2.0 </tspan>
<tspan x="10" y="890">  │ │ │   │ └── is-property@1.0.2 </tspan>
<tspan x="10" y="906">  │ │ │   ├── jsonpointer@4.0.1 </tspan>
<tspan x="10" y="922">  │ │ │   └── xtend@4.0.1 </tspan>
<tspan x="10" y="938">  │ │ ├─┬ hawk@3.1.3 </tspan>
<tspan x="10" y="954">  │ │ │ ├── boom@2.10.1 </tspan>
<tspan x="10" y="970">  │ │ │ ├── cryptiles@2.0.5 </tspan>
<tspan x="10" y="986">  │ │ │ ├── hoek@2.16.3 </tspan>
<tspan x="10" y="1002">  │ │ │ └── sntp@1.0.9 </tspan>
<tspan x="10" y="1018">  │ │ ├─┬ http-signature@1.1.1 </tspan>
<tspan x="10" y="1034">  │ │ │ ├── assert-plus@0.2.0 </tspan>
<tspan x="10" y="1050">  │ │ │ ├─┬ jsprim@1.4.0 </tspan>
<tspan x="10" y="1066">  │ │ │ │ ├── assert-plus@1.0.0 </tspan>
<tspan x="10" y="1082">  │ │ │ │ ├── extsprintf@1.0.2 </tspan>
<tspan x="10" y="1098">  │ │ │ │ ├── json-schema@0.2.3 </tspan>
<tspan x="10" y="1114">  │ │ │ │ └── verror@1.3.6 </tspan>
<tspan x="10" y="1130">  │ │ │ └─┬ sshpk@1.13.0 </tspan>
<tspan x="10" y="1146">  │ │ │   ├── asn1@0.2.3 </tspan>
<tspan x="10" y="1162">  │ │ │   ├── assert-plus@1.0.0 </tspan>
<tspan x="10" y="1178">  │ │ │   ├── bcrypt-pbkdf@1.0.1 </tspan>
<tspan x="10" y="1194">  │ │ │   ├─┬ dashdash@1.14.1 </tspan>
<tspan x="10" y="1210">  │ │ │   │ └── assert-plus@1.0.0 </tspan>
<tspan x="10" y="1226">  │ │ │   ├── ecc-jsbn@0.1.1 </tspan>
<tspan x="10" y="1242">  │ │ │   ├─┬ getpass@0.1.6 </tspan>
<tspan x="10" y="1258">  │ │ │   │ └── assert-plus@1.0.0 </tspan>
<tspan x="10" y="1274">  │ │ │   ├── jodid25519@1.0.2 </tspan>
<tspan x="10" y="1290">  │ │ │   ├── jsbn@0.1.1 </tspan>
<tspan x="10" y="1306">  │ │ │   └── tweetnacl@0.14.5 </tspan>
<tspan x="10" y="1322">  │ │ ├── is-typedarray@1.0.0 </tspan>
<tspan x="10" y="1338">  │ │ ├── isstream@0.1.2 </tspan>
<tspan x="10" y="1354">  │ │ ├── json-stringify-safe@5.0.1 </tspan>
<tspan x="10" y="1370">  │ │ ├─┬ mime-types@2.1.15 </tspan>
<tspan x="10" y="1386">  │ │ │ └── mime-db@1.27.0 </tspan>
<tspan x="10" y="1402">  │ │ ├── oauth-sign@0.8.2 </tspan>
<tspan x="10" y="1418">  │ │ ├── qs@6.3.2 </tspan>
<tspan x="10" y="1434">  │ │ ├── stringstream@0.0.5 </tspan>
<tspan x="10" y="1450">  │ │ ├─┬ tough-cookie@2.3.2 </tspan>
<tspan x="10" y="1466">  │ │ │ └── punycode@1.4.1 </tspan>
<tspan x="10" y="1482">  │ │ ├── tunnel-agent@0.4.3 </tspan>
<tspan x="10" y="1498">  │ │ └── uuid@3.0.1 </tspan>
<tspan x="10" y="1514">  │ ├─┬ request-progress@2.0.1 </tspan>
<tspan x="10" y="1530">  │ │ └── throttleit@1.0.0 </tspan>
<tspan x="10" y="1546">  │ └─┬ which@1.2.14 </tspan>
<tspan x="10" y="1562">  │   └── isexe@2.0.0 </tspan>
<tspan x="10" y="1578">  ├── pn@1.0.0 </tspan>
<tspan x="10" y="1594">  └─┬ yargs@6.6.0 </tspan>
<tspan x="10" y="1610">    ├── camelcase@3.0.0 </tspan>
<tspan x="10" y="1626">    ├─┬ cliui@3.2.0 </tspan>
<tspan x="10" y="1642">    │ ├─┬ strip-ansi@3.0.1 </tspan>
<tspan x="10" y="1658">    │ │ └── ansi-regex@2.1.1 </tspan>
<tspan x="10" y="1674">    │ └── wrap-ansi@2.1.0 </tspan>
<tspan x="10" y="1690">    ├── decamelize@1.2.0 </tspan>
<tspan x="10" y="1706">    ├── get-caller-file@1.0.2 </tspan>
<tspan x="10" y="1722">    ├─┬ os-locale@1.4.0 </tspan>
<tspan x="10" y="1738">    │ └─┬ lcid@1.0.0 </tspan>
<tspan x="10" y="1754">    │   └── invert-kv@1.0.0 </tspan>
<tspan x="10" y="1770">    ├─┬ read-pkg-up@1.0.1 </tspan>
<tspan x="10" y="1786">    │ ├─┬ find-up@1.1.2 </tspan>
<tspan x="10" y="1802">    │ │ └── path-exists@2.1.0 </tspan>
<tspan x="10" y="1818">    │ └─┬ read-pkg@1.1.0 </tspan>
<tspan x="10" y="1834">    │   ├─┬ load-json-file@1.1.0 </tspan>
<tspan x="10" y="1850">    │   │ ├─┬ parse-json@2.2.0 </tspan>
<tspan x="10" y="1866">    │   │ │ └─┬ error-ex@1.3.1 </tspan>
<tspan x="10" y="1882">    │   │ │   └── is-arrayish@0.2.1 </tspan>
<tspan x="10" y="1898">    │   │ ├── pify@2.3.0 </tspan>
<tspan x="10" y="1914">    │   │ └─┬ strip-bom@2.0.0 </tspan>
<tspan x="10" y="1930">    │   │   └── is-utf8@0.2.1 </tspan>
<tspan x="10" y="1946">    │   ├─┬ normalize-package-data@2.3.6 </tspan>
<tspan x="10" y="1962">    │   │ ├── hosted-git-info@2.4.2 </tspan>
<tspan x="10" y="1978">    │   │ ├─┬ is-builtin-module@1.0.0 </tspan>
<tspan x="10" y="1994">    │   │ │ └── builtin-modules@1.1.1 </tspan>
<tspan x="10" y="2010">    │   │ ├── semver@5.3.0 </tspan>
<tspan x="10" y="2026">    │   │ └─┬ validate-npm-package-license@3.0.1 </tspan>
<tspan x="10" y="2042">    │   │   ├─┬ spdx-correct@1.0.2 </tspan>
<tspan x="10" y="2058">    │   │   │ └── spdx-license-ids@1.2.2 </tspan>
<tspan x="10" y="2074">    │   │   └── spdx-expression-parse@1.0.4 </tspan>
<tspan x="10" y="2090">    │   └── path-type@1.1.0 </tspan>
<tspan x="10" y="2106">    ├── require-directory@2.1.1 </tspan>
<tspan x="10" y="2122">    ├── require-main-filename@1.0.1 </tspan>
<tspan x="10" y="2138">    ├── set-blocking@2.0.0 </tspan>
<tspan x="10" y="2154">    ├─┬ string-width@1.0.2 </tspan>
<tspan x="10" y="2170">    │ ├── code-point-at@1.1.0 </tspan>
<tspan x="10" y="2186">    │ └─┬ is-fullwidth-code-point@1.0.0 </tspan>
<tspan x="10" y="2202">    │   └── number-is-nan@1.0.1 </tspan>
<tspan x="10" y="2218">    ├── which-module@1.0.0 </tspan>
<tspan x="10" y="2234">    ├── y18n@3.2.1 </tspan>
<tspan x="10" y="2250">    └── yargs-parser@4.2.1</tspan>
</text>
</svg>
